<?xml version="1.0" standalone="no"?>
<!DOCTYPE svg PUBLIC "-//W3C//DTD SVG 20010904//EN"
 "http://www.w3.org/TR/2001/REC-SVG-20010904/DTD/svg10.dtd">
<svg version="1.0" xmlns="http://www.w3.org/2000/svg"
 width="118.000000pt" height="88.000000pt" viewBox="0 0 118.000000 88.000000"
 preserveAspectRatio="xMidYMid meet">
<metadata>
Created by potrace 1.16, written by Peter Selinger 2001-2019
</metadata>
<g transform="translate(0.000000,88.000000) scale(0.100000,-0.100000)"
fill="#000000" stroke="none">
<path d="M277 697 c-70 -41 -130 -76 -133 -80 -8 -8 28 -67 41 -67 5 0 48 22
95 50 47 27 88 50 93 50 4 0 21 -22 38 -50 17 -27 35 -50 40 -50 5 0 50 23 99
51 101 58 95 58 137 -18 10 -18 23 -33 30 -33 6 0 50 23 97 51 47 28 90 48 96
44 5 -3 19 -24 31 -46 11 -22 26 -42 35 -46 16 -6 64 22 64 38 0 16 -93 178
-102 179 -4 0 -42 -21 -85 -46 -43 -25 -85 -50 -95 -55 -13 -7 -22 1 -48 46
-17 30 -33 55 -36 55 -2 0 -44 -22 -92 -50 -48 -27 -93 -50 -99 -50 -7 0 -24
22 -40 50 -15 27 -30 50 -33 50 -3 0 -62 -33 -133 -73z"/>
<path d="M280 332 c-63 -37 -121 -71 -127 -75 -9 -6 -8 -16 4 -42 9 -19 21
-35 27 -35 6 0 49 23 96 50 47 28 89 50 95 50 5 0 23 -23 38 -50 16 -28 32
-50 37 -50 5 0 47 23 94 50 47 28 89 50 95 50 6 0 23 -22 39 -50 15 -27 31
-50 35 -50 5 0 47 22 94 50 47 28 91 50 98 50 7 0 18 -12 24 -27 6 -16 20 -39
30 -52 17 -22 19 -23 49 -7 18 9 32 22 32 28 0 19 -93 178 -104 178 -6 0 -49
-23 -96 -50 -47 -28 -89 -50 -95 -50 -5 0 -22 23 -37 50 -16 28 -32 50 -37 50
-6 0 -47 -22 -93 -50 -46 -27 -88 -50 -95 -50 -6 0 -24 22 -40 50 -15 27 -32
50 -38 49 -5 0 -62 -30 -125 -67z"/>
</g>
</svg>
