<?xml version="1.0" standalone="no"?>
<!DOCTYPE svg PUBLIC "-//W3C//DTD SVG 20010904//EN"
 "http://www.w3.org/TR/2001/REC-SVG-20010904/DTD/svg10.dtd">
<svg version="1.0" xmlns="http://www.w3.org/2000/svg"
 width="109.000000pt" height="105.000000pt" viewBox="0 0 109.000000 105.000000"
 preserveAspectRatio="xMidYMid meet">
<metadata>
Created by potrace 1.16, written by Peter Selinger 2001-2019
</metadata>
<g transform="translate(0.000000,105.000000) scale(0.100000,-0.100000)"
fill="#000000" stroke="none">
<path d="M216 940 c-35 -11 -82 -54 -103 -94 -22 -43 -19 -154 6 -210 l20 -46
51 0 51 0 -20 28 c-48 67 -51 173 -6 218 70 70 147 -14 214 -231 37 -120 58
-237 73 -407 l12 -128 36 0 36 0 13 132 c32 342 127 625 218 652 89 25 135
-98 78 -210 -14 -27 -25 -50 -25 -51 0 -2 21 -3 46 -3 44 0 46 1 66 48 28 61
29 161 3 215 -27 57 -82 90 -150 90 -58 0 -91 -15 -131 -62 -40 -45 -92 -164
-121 -275 -15 -58 -30 -106 -33 -106 -3 0 -15 40 -26 88 -41 166 -108 297
-171 333 -36 22 -100 30 -137 19z"/>
</g>
</svg>
