<?xml version="1.0" standalone="no"?>
<!DOCTYPE svg PUBLIC "-//W3C//DTD SVG 20010904//EN"
 "http://www.w3.org/TR/2001/REC-SVG-20010904/DTD/svg10.dtd">
<svg version="1.0" xmlns="http://www.w3.org/2000/svg"
 width="122.000000pt" height="92.000000pt" viewBox="0 0 122.000000 92.000000"
 preserveAspectRatio="xMidYMid meet">
<metadata>
Created by potrace 1.16, written by Peter Selinger 2001-2019
</metadata>
<g transform="translate(0.000000,92.000000) scale(0.100000,-0.100000)"
fill="#000000" stroke="none">
<path d="M502 795 c-200 -45 -294 -117 -294 -225 0 -128 131 -209 248 -154 90
43 121 179 58 254 -17 20 -21 31 -13 36 6 4 62 9 124 12 135 6 236 -13 338
-64 l67 -34 0 50 c0 47 -2 50 -37 69 -21 10 -69 29 -108 41 -91 28 -290 37
-383 15z m-67 -170 c76 -75 -37 -191 -116 -119 -26 24 -33 68 -15 102 18 34
28 40 74 41 22 1 41 -7 57 -24z"/>
<path d="M775 536 c-55 -34 -79 -78 -80 -147 0 -46 6 -64 28 -95 l27 -39 -42
-8 c-24 -5 -99 -6 -168 -4 -129 5 -210 25 -298 77 -37 22 -43 16 -39 -40 3
-29 10 -39 43 -57 93 -53 168 -68 334 -67 140 0 163 3 235 27 157 52 215 108
215 208 0 135 -139 214 -255 145z m114 -67 c61 -21 78 -109 28 -144 -12 -8
-38 -15 -58 -15 -88 0 -108 127 -25 160 11 5 21 9 22 9 1 1 15 -4 33 -10z"/>
</g>
</svg>
