<?xml version="1.0" standalone="no"?>
<!DOCTYPE svg PUBLIC "-//W3C//DTD SVG 20010904//EN"
 "http://www.w3.org/TR/2001/REC-SVG-20010904/DTD/svg10.dtd">
<svg version="1.0" xmlns="http://www.w3.org/2000/svg"
 width="106.000000pt" height="109.000000pt" viewBox="0 0 106.000000 109.000000"
 preserveAspectRatio="xMidYMid meet">
<metadata>
Created by potrace 1.16, written by Peter Selinger 2001-2019
</metadata>
<g transform="translate(0.000000,109.000000) scale(0.100000,-0.100000)"
fill="#000000" stroke="none">
<path d="M110 945 l0 -55 33 0 c18 0 43 -7 56 -16 42 -30 53 -77 59 -246 l5
-158 38 0 39 0 0 63 c1 150 40 285 97 339 24 23 25 23 39 3 24 -32 33 -83 42
-240 8 -133 12 -156 36 -203 l26 -52 -21 -50 c-35 -81 -92 -125 -174 -132 -28
-3 -30 -6 -33 -47 l-3 -44 59 5 c93 9 174 63 214 142 11 23 22 42 23 44 2 2
23 -7 47 -19 32 -17 61 -23 113 -23 82 -1 120 16 162 70 39 51 45 145 13 202
-46 82 -142 114 -247 81 -33 -10 -103 -79 -103 -102 0 -6 -6 -3 -12 7 -6 10
-14 87 -19 170 -9 168 -16 202 -56 258 -28 41 -51 58 -77 58 -24 0 -95 -68
-118 -113 l-20 -40 -31 58 c-35 65 -82 94 -149 95 l-38 0 0 -55z m769 -431
c39 -33 49 -82 25 -122 -40 -68 -147 -70 -207 -4 -21 23 -16 38 30 100 43 57
103 68 152 26z"/>
</g>
</svg>
