<?xml version="1.0" standalone="no"?>
<!DOCTYPE svg PUBLIC "-//W3C//DTD SVG 20010904//EN"
 "http://www.w3.org/TR/2001/REC-SVG-20010904/DTD/svg10.dtd">
<svg version="1.0" xmlns="http://www.w3.org/2000/svg"
 width="103.000000pt" height="99.000000pt" viewBox="0 0 103.000000 99.000000"
 preserveAspectRatio="xMidYMid meet">
<metadata>
Created by potrace 1.16, written by Peter Selinger 2001-2019
</metadata>
<g transform="translate(0.000000,99.000000) scale(0.100000,-0.100000)"
fill="#000000" stroke="none">
<path d="M497 939 c-58 -14 -91 -34 -135 -84 -50 -57 -67 -115 -59 -204 l6
-69 -39 -6 c-76 -12 -130 -83 -130 -171 0 -59 21 -98 72 -135 81 -59 197 -31
246 60 33 63 26 122 -29 231 -32 63 -42 95 -42 130 2 135 143 211 261 139 51
-31 72 -75 72 -150 0 -69 -32 -155 -84 -223 -13 -18 -41 -66 -60 -107 -58
-121 -48 -211 31 -265 61 -41 181 -31 222 19 13 15 11 20 -11 42 -25 25 -26
26 -71 10 -59 -20 -101 -7 -116 35 -15 43 8 108 75 214 78 122 104 189 104
267 0 87 -14 128 -60 181 -65 74 -165 108 -253 86z m-127 -477 c55 -69 -13
-162 -94 -128 -72 30 -68 134 6 154 43 11 64 5 88 -26z"/>
</g>
</svg>
