<?xml version="1.0" standalone="no"?>
<!DOCTYPE svg PUBLIC "-//W3C//DTD SVG 20010904//EN"
 "http://www.w3.org/TR/2001/REC-SVG-20010904/DTD/svg10.dtd">
<svg version="1.0" xmlns="http://www.w3.org/2000/svg"
 width="96.000000pt" height="107.000000pt" viewBox="0 0 96.000000 107.000000"
 preserveAspectRatio="xMidYMid meet">
<metadata>
Created by potrace 1.16, written by Peter Selinger 2001-2019
</metadata>
<g transform="translate(0.000000,107.000000) scale(0.100000,-0.100000)"
fill="#000000" stroke="none">
<path d="M140 955 c0 -3 21 -31 47 -63 55 -68 99 -157 113 -231 16 -84 19 -80
-72 -83 l-83 -3 -3 -42 -3 -43 85 0 c83 0 86 -1 86 -23 0 -78 -63 -223 -129
-299 -23 -25 -41 -51 -41 -57 0 -7 20 -11 49 -11 45 0 52 3 81 38 49 58 101
176 119 268 l16 84 85 0 85 0 17 -87 c18 -93 67 -205 116 -263 26 -31 35 -35
81 -36 58 -2 65 10 26 46 -65 61 -128 190 -141 289 l-7 51 82 0 81 0 0 45 0
45 -80 0 c-92 0 -92 0 -65 103 20 76 55 144 110 211 25 31 45 58 45 61 0 3
-25 5 -55 5 -53 0 -56 -1 -85 -42 -52 -71 -91 -162 -108 -252 l-17 -86 -85 0
-86 0 -12 71 c-15 87 -60 198 -107 262 -35 46 -36 47 -90 47 -30 0 -55 -2 -55
-5z"/>
</g>
</svg>
