<?xml version="1.0" standalone="no"?>
<!DOCTYPE svg PUBLIC "-//W3C//DTD SVG 20010904//EN"
 "http://www.w3.org/TR/2001/REC-SVG-20010904/DTD/svg10.dtd">
<svg version="1.0" xmlns="http://www.w3.org/2000/svg"
 width="112.000000pt" height="127.000000pt" viewBox="0 0 112.000000 127.000000"
 preserveAspectRatio="xMidYMid meet">
<metadata>
Created by potrace 1.16, written by Peter Selinger 2001-2019
</metadata>
<g transform="translate(0.000000,127.000000) scale(0.100000,-0.100000)"
fill="#000000" stroke="none">
<path d="M364 1168 c-21 -18 -50 -52 -64 -75 l-27 -42 -22 49 c-26 59 -40 71
-83 74 -46 4 -50 0 -27 -37 10 -18 29 -61 41 -97 19 -60 21 -92 26 -392 l4
-328 38 0 38 0 4 288 c4 268 6 291 26 343 29 74 77 140 96 133 35 -13 40 -64
46 -414 l5 -345 43 -3 42 -3 0 268 c1 280 5 323 45 407 34 72 62 101 82 84 34
-28 37 -63 43 -440 5 -362 6 -378 26 -405 29 -39 92 -73 137 -73 36 0 37 -1
37 -36 l0 -36 58 53 c31 28 57 57 57 63 0 11 -97 106 -109 106 -3 0 -6 -13 -6
-30 0 -27 -3 -30 -33 -30 -18 0 -42 6 -53 14 -18 14 -19 33 -25 388 -5 316 -8
380 -23 417 -19 52 -58 106 -87 121 -39 21 -103 -28 -150 -113 l-16 -29 -27
56 c-27 55 -66 96 -92 96 -7 0 -30 -15 -50 -32z"/>
</g>
</svg>
