<?xml version="1.0" standalone="no"?>
<!DOCTYPE svg PUBLIC "-//W3C//DTD SVG 20010904//EN"
 "http://www.w3.org/TR/2001/REC-SVG-20010904/DTD/svg10.dtd">
<svg version="1.0" xmlns="http://www.w3.org/2000/svg"
 width="119.000000pt" height="112.000000pt" viewBox="0 0 119.000000 112.000000"
 preserveAspectRatio="xMidYMid meet">
<metadata>
Created by potrace 1.16, written by Peter Selinger 2001-2019
</metadata>
<g transform="translate(0.000000,112.000000) scale(0.100000,-0.100000)"
fill="#000000" stroke="none">
<path d="M140 958 c0 -43 0 -44 44 -56 57 -15 110 -62 142 -124 14 -27 42 -66
63 -86 l39 -37 -47 -51 c-104 -114 -107 -270 -7 -381 64 -71 123 -98 216 -98
65 0 82 4 130 31 61 34 121 105 139 164 31 104 0 222 -77 297 l-40 39 37 31
c20 17 51 57 68 90 18 32 42 68 55 80 27 26 88 53 118 53 19 0 21 5 18 43 l-3
42 -40 -3 c-88 -7 -159 -62 -230 -179 -30 -50 -51 -72 -84 -90 -51 -26 -124
-30 -174 -9 -37 15 -88 70 -111 118 -40 84 -125 147 -218 164 l-38 6 0 -44z
m555 -386 c73 -51 104 -124 86 -205 -42 -183 -286 -213 -371 -46 -53 103 6
244 117 279 48 16 124 3 168 -28z"/>
</g>
</svg>
