<?xml version="1.0" standalone="no"?>
<!DOCTYPE svg PUBLIC "-//W3C//DTD SVG 20010904//EN"
 "http://www.w3.org/TR/2001/REC-SVG-20010904/DTD/svg10.dtd">
<svg version="1.0" xmlns="http://www.w3.org/2000/svg"
 width="110.000000pt" height="128.000000pt" viewBox="0 0 110.000000 128.000000"
 preserveAspectRatio="xMidYMid meet">
<metadata>
Created by potrace 1.16, written by Peter Selinger 2001-2019
</metadata>
<g transform="translate(0.000000,128.000000) scale(0.100000,-0.100000)"
fill="#000000" stroke="none">
<path d="M352 1164 c-18 -14 -46 -49 -61 -76 l-29 -50 -21 48 c-31 69 -48 84
-93 84 -21 0 -38 -2 -38 -3 0 -2 13 -30 29 -63 46 -93 51 -140 51 -474 l0
-310 44 0 45 0 3 288 c3 268 5 291 25 341 29 70 71 133 86 129 7 -2 21 -22 32
-44 19 -36 20 -62 23 -376 l3 -338 44 0 44 0 3 293 3 292 34 72 c40 86 64 112
86 93 33 -27 38 -82 42 -432 l5 -347 -49 -25 c-27 -13 -66 -27 -86 -31 -36 -7
-37 -8 -37 -51 0 -53 3 -54 108 -18 42 14 78 22 79 17 2 -4 14 -26 26 -48 21
-38 25 -40 75 -43 28 -2 52 0 52 3 0 4 -11 21 -24 38 -12 18 -30 50 -38 72
l-16 40 63 67 c69 72 117 162 136 248 17 77 6 241 -20 315 -40 112 -88 133
-151 66 l-37 -39 -6 73 c-8 112 -71 215 -130 215 -26 0 -114 -90 -123 -125 -9
-36 -19 -31 -33 15 -14 46 -70 110 -97 110 -11 0 -34 -12 -52 -26z m554 -345
c13 -26 15 -55 13 -148 -4 -111 -6 -121 -41 -192 -21 -41 -46 -83 -58 -94
l-20 -18 0 166 c0 175 10 230 52 290 25 35 34 34 54 -4z"/>
</g>
</svg>
